<?xml version="1.0" standalone="no"?>
<!DOCTYPE svg PUBLIC "-//W3C//DTD SVG 20010904//EN"
 "http://www.w3.org/TR/2001/REC-SVG-20010904/DTD/svg10.dtd">
<svg version="1.0" xmlns="http://www.w3.org/2000/svg"
 width="885.000000pt" height="885.000000pt" viewBox="0 0 885.000000 885.000000"
 preserveAspectRatio="xMidYMid meet">

<g transform="translate(0.000000,885.000000) scale(0.100000,-0.100000)"
fill="#000000" stroke="none">
<path d="M2926 8842 c5 -5 52 -43 104 -84 52 -42 172 -149 265 -238 97 -91
207 -185 255 -217 129 -85 197 -138 291 -227 47 -45 112 -101 145 -126 32 -25
86 -81 119 -125 65 -86 127 -148 216 -213 32 -23 86 -74 120 -114 35 -40 127
-136 205 -213 297 -296 358 -340 486 -351 40 -3 109 -14 153 -24 44 -10 115
-24 158 -31 51 -8 90 -20 110 -35 18 -13 42 -31 54 -40 16 -11 48 -16 120 -18
120 -3 284 -38 335 -71 67 -45 72 -63 80 -315 11 -341 20 -457 38 -474 10 -10
46 -17 108 -21 124 -7 163 -28 196 -105 22 -53 52 -80 89 -81 202 -3 367 -18
426 -39 55 -19 73 -21 125 -14 73 11 397 12 444 2 29 -7 35 -4 53 25 19 30 20
43 15 187 -8 240 14 327 94 374 29 17 38 18 77 7 25 -6 66 -21 91 -33 34 -15
69 -21 127 -22 86 -2 112 -11 162 -59 25 -23 40 -29 65 -27 122 11 169 -4 247
-81 97 -96 137 -203 107 -290 -16 -47 -12 -61 28 -98 l26 -24 -20 -33 c-10
-19 -16 -35 -12 -37 4 -2 33 -5 66 -5 71 -2 101 -19 127 -75 26 -57 25 -129
-3 -178 -12 -22 -27 -39 -33 -39 -7 0 -20 -9 -29 -19 -16 -17 -17 -32 -11
-124 9 -134 4 -158 -44 -191 -35 -25 -42 -26 -82 -16 -67 16 -98 17 -123 5
-12 -7 -42 -14 -67 -17 -24 -3 -64 -14 -88 -25 l-44 -19 44 -23 c24 -13 61
-38 82 -57 43 -39 63 -42 115 -15 38 20 101 39 161 48 25 4 38 0 55 -16 11
-11 38 -35 59 -52 l37 -31 0 570 c0 637 8 573 -71 586 -23 4 -49 20 -74 46
l-40 41 1 144 c1 139 3 147 28 185 28 42 72 68 123 72 l33 2 0 1152 0 1153
-86 42 c-95 47 -119 67 -141 118 -16 37 -6 36 -143 16 -52 -7 -80 -25 -80 -52
0 -13 -5 -23 -11 -23 -6 0 -22 -9 -36 -20 -19 -15 -30 -17 -43 -10 -10 6 -28
10 -40 10 -12 0 -35 14 -50 30 -15 17 -33 30 -39 30 -11 0 -22 7 -56 38 -15
13 -35 16 -35 4 0 -4 -18 -6 -39 -4 -21 2 -49 -1 -61 -8 -24 -13 -22 -20 7
-25 29 -6 29 -6 8 -14 -22 -9 -106 18 -134 43 -16 14 -268 16 -2486 16 -1358
0 -2465 -4 -2459 -8z m5126 -281 c13 -5 41 -14 63 -21 22 -7 58 -20 80 -30 22
-9 85 -34 140 -56 58 -22 111 -50 125 -65 34 -36 82 -59 124 -59 73 0 112
-100 55 -140 -12 -8 -40 -32 -63 -53 -34 -32 -46 -38 -70 -33 -16 3 -34 6 -42
6 -7 0 -37 24 -67 53 -59 58 -199 155 -291 202 -83 42 -126 83 -133 126 -4 29
-1 41 16 58 23 23 30 25 63 12z m-1057 -381 c8 -13 -25 -13 -45 0 -12 8 -9 10
12 10 15 0 30 -4 33 -10z m1001 -140 c86 -26 127 -50 151 -87 32 -50 74 -91
106 -104 76 -30 90 -72 30 -88 -55 -16 -60 -14 -91 19 -22 25 -38 33 -90 40
-56 8 -73 16 -139 67 -66 52 -123 122 -123 153 0 14 54 37 70 29 8 -4 47 -17
86 -29z m-796 -1284 c0 -2 3 -11 6 -20 4 -11 0 -16 -12 -16 -27 0 -48 16 -40
29 7 10 46 16 46 7z m290 -568 c45 -31 90 -119 90 -175 0 -57 -49 -152 -91
-177 -16 -10 -49 -18 -73 -19 -37 -2 -54 5 -103 38 -72 50 -88 80 -87 167 2
85 23 124 89 160 64 35 129 37 175 6z"/>
<path d="M3975 7190 c-4 -6 -24 -18 -46 -26 -21 -9 -37 -20 -34 -24 8 -13 -44
-63 -103 -100 -29 -19 -48 -36 -42 -40 6 -4 -1 -16 -16 -31 -21 -18 -26 -20
-21 -6 6 15 4 16 -13 7 -22 -12 -24 -18 -10 -40 6 -10 -1 -23 -26 -48 -33 -32
-60 -39 -37 -10 7 8 7 22 2 37 -9 23 -10 23 -29 6 -12 -11 -18 -26 -15 -35 3
-10 -1 -23 -10 -30 -8 -7 -15 -22 -15 -34 0 -16 -2 -18 -9 -7 -8 12 -13 11
-30 -10 -27 -31 -37 -62 -22 -67 6 -2 11 -13 11 -24 0 -15 -5 -18 -20 -13 -13
4 -20 2 -18 -5 2 -7 -3 -15 -9 -17 -8 -3 -13 5 -13 21 0 14 -4 26 -10 26 -5 0
-10 -11 -10 -24 0 -26 -21 -47 -28 -28 -2 7 -17 12 -32 12 -17 0 -33 7 -38 17
-5 9 -16 14 -25 10 -14 -5 -65 4 -98 17 -12 5 -21 -2 -33 -29 -9 -19 -14 -40
-11 -46 4 -6 0 -18 -8 -27 -9 -11 -14 -31 -12 -54 3 -30 0 -38 -13 -38 -10 0
-35 -9 -56 -21 -21 -11 -52 -21 -70 -22 -35 -3 -56 -13 -56 -29 0 -7 5 -6 15
2 8 6 20 10 27 7 7 -2 37 4 67 14 29 10 57 16 62 13 17 -10 -31 -64 -56 -64
-18 0 -22 -4 -18 -20 4 -14 0 -20 -11 -20 -9 0 -16 -4 -16 -10 0 -16 -111
-120 -128 -120 -13 0 -13 2 1 18 24 26 21 32 -8 19 -14 -7 -25 -18 -25 -24 0
-7 -5 -13 -10 -13 -6 0 -22 -11 -36 -25 -19 -19 -23 -31 -18 -51 4 -17 3 -25
-3 -21 -6 4 -22 1 -37 -6 -22 -10 -25 -17 -21 -37 3 -14 13 -30 21 -36 10 -8
12 -21 8 -43 -5 -25 -3 -31 11 -31 12 0 15 -5 11 -16 -4 -9 -1 -23 5 -30 8 -9
8 -14 1 -14 -19 0 -24 -39 -10 -76 11 -32 11 -37 -7 -52 -29 -24 -73 -77 -56
-67 9 5 12 3 9 -6 -3 -8 -11 -13 -17 -11 -16 3 -14 -6 10 -39 11 -16 28 -29
37 -29 15 -1 14 -3 -2 -15 -23 -17 -40 -20 -31 -5 3 6 1 10 -6 10 -7 0 -21 7
-31 17 -17 15 -17 14 -4 -31 21 -71 71 -126 112 -126 14 0 22 -4 19 -10 -4 -6
5 -10 19 -10 27 0 32 -10 39 -82 2 -27 -1 -38 -11 -38 -24 0 -7 -24 23 -32 18
-4 32 -3 36 3 5 8 8 8 13 0 4 -6 1 -11 -6 -11 -23 -1 33 -40 57 -40 14 0 35
-14 54 -35 31 -36 86 -134 78 -141 -2 -2 -19 7 -37 21 -19 14 -40 25 -47 25
-45 0 34 -58 89 -65 43 -6 49 -10 57 -38 6 -23 10 -26 11 -12 1 11 4 29 7 40
3 11 6 81 7 155 l1 135 27 3 c20 2 31 -3 43 -22 9 -13 30 -28 46 -31 22 -5 29
-11 25 -22 -3 -8 -9 -31 -12 -52 -9 -57 17 -74 106 -69 64 3 71 2 67 -14 -9
-35 42 -58 132 -60 61 -1 81 -4 81 -15 0 -23 30 -14 86 25 52 35 65 52 44 52
-5 0 -10 7 -10 15 0 17 16 21 22 5 4 -14 85 27 93 48 3 9 11 53 16 97 6 48 16
84 24 91 35 26 -5 85 -50 76 -21 -4 -25 -1 -25 21 0 22 -8 27 -72 47 -40 13
-79 28 -85 33 -9 6 -17 6 -25 -1 -7 -5 -57 -10 -110 -10 -54 -1 -102 -4 -108
-7 -24 -15 -30 8 -8 29 13 12 40 43 61 69 21 26 45 47 53 47 9 0 12 -5 8 -12
-4 -6 10 1 31 17 31 25 49 30 108 33 87 5 174 -14 208 -45 23 -21 33 -24 70
-18 24 3 53 8 64 9 11 2 21 11 21 22 1 10 2 24 3 29 1 12 118 18 135 8 6 -4
27 -8 46 -9 48 -2 161 -20 185 -30 11 -4 25 -15 31 -23 16 -21 -21 -40 -65
-33 -21 3 -38 -1 -50 -12 -9 -9 -32 -19 -49 -22 -17 -4 -37 -13 -43 -20 -6 -8
-19 -14 -29 -14 -9 0 -48 -20 -84 -45 -37 -25 -75 -45 -85 -45 -24 0 -71 -23
-71 -36 0 -5 4 -14 9 -20 5 -5 11 -22 13 -39 5 -44 42 -47 57 -5 l10 31 33
-18 c57 -31 78 -54 72 -79 -4 -15 0 -25 12 -32 17 -9 17 -11 1 -36 -9 -14 -17
-33 -17 -42 0 -10 -5 -14 -15 -10 -23 8 -18 -22 5 -34 11 -6 20 -17 20 -25 0
-15 35 -30 50 -20 5 3 10 1 10 -4 0 -6 9 -11 19 -11 11 0 23 -5 26 -11 4 -5
32 -21 63 -35 31 -14 60 -32 65 -40 10 -18 37 -18 37 0 0 9 19 16 60 20 33 4
62 11 65 16 4 6 13 10 21 10 9 0 22 7 30 15 9 8 27 15 40 15 14 0 22 4 19 10
-3 6 -13 10 -21 10 -8 0 -24 9 -35 19 -21 19 -21 20 -3 45 21 28 105 49 112
27 5 -15 55 -14 70 1 7 7 12 33 12 58 0 37 -5 51 -25 68 -14 12 -25 30 -25 41
0 10 -7 24 -15 31 -30 25 1 33 60 15 32 -9 63 -14 71 -11 8 3 14 27 16 68 l3
63 39 3 c56 5 68 -2 56 -32 -7 -18 -6 -28 3 -33 7 -4 24 -32 39 -60 27 -51 28
-57 26 -195 -1 -89 2 -151 9 -163 6 -11 11 -64 11 -118 0 -83 -3 -103 -23
-141 -19 -37 -45 -132 -45 -168 0 -13 26 -9 38 5 5 6 12 35 16 62 18 145 34
186 66 178 16 -4 20 0 20 20 0 13 -7 30 -15 37 -12 10 -15 30 -13 89 3 74 4
76 30 79 19 2 28 -2 33 -17 9 -30 53 -28 65 3 29 76 114 151 158 139 17 -4 22
1 28 23 9 39 46 114 56 114 4 0 8 -7 8 -15 0 -23 28 -30 48 -11 14 12 25 14
50 7 17 -5 40 -7 50 -4 22 5 48 59 58 118 3 22 12 55 20 72 10 21 14 57 12
100 -3 67 -4 68 -33 73 -27 5 -30 9 -27 40 5 73 2 90 -22 129 -24 37 -25 42
-11 68 31 61 55 120 61 151 10 49 -14 118 -50 147 -17 14 -38 32 -47 40 -9 8
-18 15 -22 15 -3 0 -22 11 -42 24 -28 19 -43 23 -76 19 -37 -5 -44 -2 -80 33
-21 21 -39 43 -39 50 0 6 -9 23 -20 37 -11 14 -20 40 -21 59 0 27 -10 42 -50
78 -28 25 -67 61 -87 81 -42 41 -100 79 -122 79 -8 0 -26 9 -40 20 -14 11 -35
20 -47 20 -25 0 -47 8 -151 57 -40 19 -76 41 -79 49 -3 8 -16 14 -30 14 -13 0
-36 6 -51 14 -69 35 -186 59 -282 58 -81 -2 -107 2 -180 27 -54 18 -88 35 -94
47 -5 11 -29 32 -54 47 -38 24 -52 27 -91 22 -43 -6 -45 -5 -27 9 19 15 19 16
-6 16 -15 0 -30 -5 -33 -10z m94 -70 c24 -34 24 -34 -49 -49 -74 -15 -88 -19
-109 -31 -12 -6 -21 -7 -21 -1 0 12 81 51 107 51 29 0 53 10 53 22 0 10 -38 7
-75 -6 l-20 -8 20 16 c11 8 25 20 30 25 18 18 41 11 64 -19z m71 5 c8 -9 8
-15 2 -15 -18 0 -42 12 -42 21 0 14 26 10 40 -6z m463 -139 c134 -24 112 -40
-44 -33 -112 5 -169 14 -169 28 0 4 21 10 48 12 26 2 56 4 67 5 11 1 55 -5 98
-12z m-488 -26 c-3 -5 -17 -10 -31 -10 -13 0 -24 5 -24 10 0 6 14 10 31 10 17
0 28 -4 24 -10z m-882 -284 c3 -7 22 -16 41 -20 42 -8 50 -36 11 -36 -14 0
-25 -4 -25 -10 0 -5 -18 -10 -40 -10 -22 0 -40 5 -40 10 0 6 4 10 9 10 5 0 9
6 8 13 -1 37 5 57 17 57 8 0 16 -6 19 -14z m-172 -375 c-24 -33 -99 -96 -106
-89 -3 3 22 33 55 68 62 64 89 75 51 21z m-217 -86 c-6 -16 -24 -21 -24 -7 0
11 11 22 21 22 5 0 6 -7 3 -15z m306 -33 c0 -5 -9 -17 -20 -27 -16 -14 -20
-15 -20 -4 0 16 19 39 32 39 4 0 8 -4 8 -8z m-360 -417 c0 -8 -9 -15 -20 -15
-22 0 -27 15 -7 23 21 9 27 7 27 -8z m3 -158 c24 -36 7 -50 -27 -23 -17 13
-26 28 -22 34 11 19 32 14 49 -11z m125 -179 c7 -7 12 -20 12 -30 0 -16 -3
-17 -20 -8 -11 6 -20 20 -20 30 0 23 10 26 28 8z m292 -18 c0 -5 -4 -10 -10
-10 -5 0 -10 5 -10 10 0 6 5 10 10 10 6 0 10 -4 10 -10z m1315 -132 c6 -14 2
-18 -16 -18 -52 0 -62 38 -23 81 l19 21 6 -33 c4 -19 10 -42 14 -51z m206 61
c37 -26 34 -47 -10 -65 l-33 -14 6 34 c4 20 2 37 -4 41 -10 6 -5 25 7 25 2 0
18 -9 34 -21z m-1156 -82 c18 -43 11 -46 -28 -13 -26 22 -27 25 -11 40 19 20
19 20 39 -27z m-40 -87 c3 -5 1 -10 -4 -10 -6 0 -11 5 -11 10 0 6 2 10 4 10 3
0 8 -4 11 -10z"/>
<path d="M3360 6725 c0 -15 4 -24 10 -20 6 3 10 12 10 20 0 8 -4 17 -10 20 -6
4 -10 -5 -10 -20z"/>
<path d="M3053 6549 c-31 -9 -50 -25 -40 -35 5 -5 87 35 87 42 0 5 -9 4 -47
-7z"/>
<path d="M2910 6424 c-6 -14 -10 -30 -10 -36 0 -6 -7 -20 -17 -30 -21 -23 -8
-37 14 -15 14 14 42 79 43 100 0 18 -21 5 -30 -19z"/>
<path d="M7547 5338 c-6 -4 -14 -33 -18 -65 -4 -32 -10 -75 -14 -95 -10 -50 6
-68 59 -68 43 -1 145 -22 167 -36 39 -24 95 -22 178 7 46 16 102 29 123 29 54
0 78 15 78 48 0 39 -30 54 -89 46 -37 -5 -59 -1 -95 14 -25 12 -46 27 -46 34
0 7 -17 31 -38 53 l-37 40 -128 0 c-71 0 -134 -3 -140 -7z"/>
<path d="M5426 5230 c-19 -20 -19 -20 0 -41 13 -14 25 -55 36 -127 30 -182 32
-222 14 -281 -41 -139 8 -77 59 74 45 133 50 217 16 283 -12 23 -21 47 -21 55
0 22 -39 57 -63 56 -12 0 -31 -9 -41 -19z"/>
<path d="M2925 5098 c-9 -24 -21 -53 -26 -66 -13 -34 -11 -142 5 -182 24 -64
95 -195 102 -188 4 5 -26 129 -38 151 -6 12 -5 23 3 33 7 8 9 27 5 46 -12 58
-14 108 -5 108 4 0 6 6 3 13 -2 7 7 19 21 27 21 11 25 19 20 40 -6 25 -41 59
-61 60 -6 0 -19 -19 -29 -42z"/>
<path d="M300 5075 c-14 -8 -34 -18 -46 -24 -52 -24 -68 -95 -35 -153 10 -18
22 -48 26 -65 7 -37 19 -40 61 -18 16 8 43 15 59 15 17 0 41 9 55 20 14 11 37
20 52 20 15 0 29 4 32 9 3 5 17 12 31 15 44 11 65 36 53 61 -11 24 -32 37 -88
54 -19 6 -52 27 -72 46 -41 39 -84 46 -128 20z"/>
<path d="M5260 4981 c-13 -34 -4 -58 33 -88 28 -22 43 -69 24 -76 -9 -4 -9 -6
1 -6 41 -3 -21 -91 -64 -91 -24 0 -64 -53 -64 -86 0 -22 48 -66 63 -57 6 4 3
10 -9 14 -18 7 -18 8 2 8 24 1 60 37 66 66 2 12 13 21 28 23 68 10 131 133
107 207 -7 21 -139 115 -162 115 -7 0 -18 -13 -25 -29z"/>
<path d="M4221 4951 c-28 -18 -26 -37 5 -45 28 -7 91 2 99 14 21 33 -63 58
-104 31z"/>
<path d="M3160 4938 c0 -14 -9 -33 -19 -42 -11 -10 -22 -28 -25 -42 -4 -13
-11 -24 -16 -24 -13 0 -44 -60 -46 -90 -5 -65 45 -138 85 -125 20 6 20 8 6 28
-24 34 -19 114 10 170 20 36 25 58 22 92 -5 49 -17 74 -17 33z"/>
<path d="M4198 4800 c-35 -4 -52 -13 -69 -34 -14 -18 -27 -25 -38 -21 -9 4
-42 7 -73 7 -43 0 -61 5 -74 19 -20 22 -105 27 -122 7 -26 -33 -23 -54 11 -70
39 -19 91 -13 83 9 -4 9 -1 13 6 10 7 -2 11 -12 10 -22 -5 -23 -92 -116 -103
-109 -4 2 -13 -5 -19 -16 -9 -17 -14 -19 -26 -9 -12 10 -19 8 -38 -10 -14 -13
-29 -19 -40 -15 -9 4 -24 0 -34 -8 -23 -20 -60 -28 -65 -14 -3 8 -10 8 -22 1
-20 -12 -44 -91 -45 -147 0 -39 8 -46 27 -27 19 19 35 -1 31 -40 -3 -40 -4
-40 72 -21 34 8 50 8 67 -1 20 -11 29 -9 61 9 33 19 37 25 34 57 -3 39 17 56
42 35 12 -9 17 -7 25 8 9 17 24 21 98 24 54 3 94 0 102 -6 10 -8 15 -8 18 2 6
17 214 17 231 0 7 -7 22 -13 35 -13 19 0 22 -5 19 -32 -3 -23 1 -33 11 -33 21
0 52 -37 35 -43 -7 -2 -10 -8 -5 -12 4 -5 14 0 22 11 8 10 15 16 15 11 0 -4
13 -1 30 8 45 23 66 19 80 -16 9 -20 22 -32 41 -36 33 -6 44 -27 24 -47 -8 -8
-15 -19 -15 -25 0 -28 -82 -85 -110 -76 -14 5 -23 -2 -35 -29 -10 -20 -21 -33
-26 -30 -19 12 -50 -7 -47 -29 4 -27 45 -36 54 -13 4 9 23 19 45 22 23 4 39
12 39 20 0 8 18 25 39 40 31 20 41 34 46 65 4 24 11 37 17 32 6 -3 8 -1 4 5
-3 5 -3 12 1 14 13 5 52 139 59 200 6 54 5 60 -30 112 -20 30 -36 65 -36 79 0
31 -66 104 -102 113 -26 6 -28 4 -24 -22 2 -16 6 -36 9 -44 3 -8 8 -28 12 -44
l6 -29 -52 6 c-57 7 -124 46 -134 78 -4 11 -14 19 -24 19 -10 0 -24 6 -30 14
-9 11 0 19 44 41 59 30 72 51 28 42 -15 -3 -37 0 -48 6 -29 16 -93 23 -147 17z
m27 -50 c-3 -5 -11 -10 -16 -10 -6 0 -7 5 -4 10 3 6 11 10 16 10 6 0 7 -4 4
-10z m45 -15 c7 -9 10 -18 7 -22 -8 -7 -37 15 -37 28 0 14 16 11 30 -6z m-338
-158 c7 6 64 11 125 12 96 2 112 0 107 -12 -3 -8 -20 -18 -37 -21 -18 -3 -39
-8 -47 -10 -8 -3 -25 -5 -36 -5 -12 -1 -32 -12 -46 -26 -19 -19 -38 -26 -81
-29 -32 -2 -64 -9 -72 -16 -8 -7 -21 -10 -29 -7 -8 3 -30 -5 -48 -18 -18 -13
-43 -32 -55 -41 -23 -16 -53 -13 -53 5 0 16 58 74 93 93 17 9 56 28 85 42 34
16 52 31 52 43 1 17 1 17 15 -1 10 -14 18 -16 27 -9z m501 -39 c94 -29 128
-53 112 -78 -6 -10 -52 -3 -70 10 -5 5 -36 14 -67 21 -31 7 -54 17 -52 21 3 4
-3 8 -14 8 -11 0 -37 14 -58 31 l-39 31 45 -7 c25 -3 89 -20 143 -37z"/>
<path d="M5217 4798 c-15 -39 -16 -48 -6 -48 13 0 22 24 16 47 -4 17 -4 17
-10 1z"/>
<path d="M6973 4711 c-25 -18 -45 -45 -57 -77 -11 -27 -34 -63 -52 -81 -33
-33 -84 -123 -84 -149 0 -7 9 -28 20 -46 14 -24 20 -51 20 -95 0 -34 4 -64 8
-67 11 -7 68 -121 87 -176 8 -23 15 -75 15 -114 1 -109 44 -429 70 -518 13
-45 24 -47 47 -10 47 73 100 135 142 165 49 36 71 80 71 146 0 17 7 48 16 69
34 79 33 77 7 132 -22 46 -24 60 -18 121 8 76 -5 149 -38 214 -11 21 -21 65
-24 97 -2 31 -10 76 -18 99 -8 23 -15 51 -15 63 0 12 -11 41 -24 66 -13 25
-39 74 -57 109 -43 80 -64 90 -116 52z"/>
<path d="M5010 4700 c0 -5 5 -10 11 -10 5 0 7 5 4 10 -3 6 -8 10 -11 10 -2 0
-4 -4 -4 -10z"/>
<path d="M5005 4660 c-4 -6 -14 -10 -24 -10 -10 0 -23 -12 -30 -27 -9 -20 -15
-23 -23 -15 -7 7 -30 12 -51 12 l-40 0 6 -37 c9 -53 21 -61 57 -35 31 24 55
28 65 12 12 -19 35 -10 35 13 0 13 9 32 20 42 11 10 20 24 20 30 0 16 -27 27
-35 15z"/>
<path d="M5364 4595 c-19 -14 -18 -14 4 -15 13 0 22 6 22 15 0 19 -1 19 -26 0z"/>
<path d="M3175 4589 c-5 -7 -1 -18 11 -26 24 -17 33 2 11 24 -11 12 -16 12
-22 2z"/>
<path d="M8326 4555 c-9 -14 -13 -25 -9 -25 5 0 2 -4 -5 -9 -11 -6 -11 -10 0
-19 19 -15 48 10 51 43 3 37 -16 42 -37 10z"/>
<path d="M4920 4509 c0 -11 5 -17 10 -14 6 3 10 13 10 21 0 8 -4 14 -10 14 -5
0 -10 -9 -10 -21z"/>
<path d="M5130 4443 c0 -32 5 -41 31 -55 17 -10 43 -18 57 -18 l27 1 -33 27
c-18 15 -32 36 -32 48 0 20 -17 34 -41 34 -5 0 -9 -17 -9 -37z"/>
<path d="M7735 4426 c-36 -37 -44 -53 -55 -112 -19 -109 -42 -147 -125 -209
-82 -61 -109 -94 -119 -147 -4 -21 -11 -38 -16 -38 -5 0 -17 -12 -26 -26 -17
-25 -17 -26 23 -62 78 -72 107 -168 79 -263 -8 -30 -18 -82 -22 -114 -4 -33
-17 -82 -30 -109 -29 -61 -30 -76 -3 -162 12 -38 28 -96 35 -129 8 -33 20 -83
28 -111 10 -38 12 -64 4 -105 -15 -86 -58 -102 -141 -49 -26 16 -52 30 -57 30
-17 0 -50 58 -50 89 0 56 -72 171 -107 171 -7 0 -32 17 -56 38 -63 57 -85 63
-196 57 -71 -4 -109 -2 -146 10 -27 8 -58 15 -68 15 -9 0 -35 11 -56 25 -20
14 -53 30 -72 36 -95 29 -145 39 -190 39 -48 0 -52 2 -112 63 -34 35 -79 84
-99 108 -27 34 -60 57 -125 89 l-88 44 -115 0 c-83 0 -131 -5 -173 -18 l-59
-18 -24 22 c-21 21 -33 23 -124 22 -87 -1 -104 -4 -130 -24 -17 -12 -30 -28
-30 -35 0 -7 -5 -13 -11 -13 -19 0 -97 70 -107 98 -17 42 -36 116 -33 129 1 7
-7 33 -19 57 -11 25 -20 50 -20 55 0 6 -4 11 -9 11 -5 0 -11 9 -14 20 -3 11
-1 20 4 20 5 0 9 7 9 16 0 12 -6 15 -24 10 -28 -7 -44 10 -27 27 6 6 11 21 11
33 0 20 -3 21 -35 14 -44 -10 -67 -25 -127 -84 -33 -33 -55 -46 -75 -46 -16 0
-38 -6 -49 -14 -11 -8 -44 -17 -72 -19 -29 -2 -60 -11 -70 -19 -32 -29 -64
-40 -96 -34 -19 3 -38 0 -50 -9 -22 -17 -82 -20 -91 -5 -3 6 -13 10 -21 10 -8
0 -34 9 -56 20 -23 11 -59 20 -79 20 -21 0 -40 4 -44 10 -4 6 -15 6 -31 0 -14
-6 -29 -8 -33 -6 -4 3 -23 -9 -41 -25 -46 -43 -170 -83 -215 -70 -19 5 -36 7
-39 4 -3 -3 -31 -1 -63 5 -32 6 -85 14 -118 17 l-60 5 35 -27 c35 -28 96 -87
137 -133 34 -39 51 -50 75 -50 13 0 39 -9 58 -19 19 -11 67 -36 105 -56 39
-20 92 -49 120 -65 27 -15 53 -26 58 -23 4 2 20 -3 35 -13 36 -24 71 -28 91
-11 9 8 37 15 62 15 43 0 93 23 140 65 10 8 32 18 50 22 19 4 44 14 57 22 21
13 25 13 38 -4 7 -10 14 -21 14 -26 0 -4 11 -13 25 -19 14 -6 25 -15 25 -20 0
-4 18 -27 40 -49 22 -23 40 -45 40 -50 0 -5 14 -9 30 -9 17 0 30 -4 30 -10 0
-5 -4 -10 -10 -10 -5 0 -10 -7 -10 -15 0 -8 -5 -24 -12 -34 -18 -29 -4 -51 32
-47 16 2 30 -1 30 -5 0 -5 -3 -9 -7 -9 -5 0 -16 -14 -25 -30 -10 -18 -25 -30
-38 -30 -11 0 -24 -8 -27 -17 -4 -10 -13 -24 -20 -31 -10 -11 -10 -19 0 -45
12 -27 18 -31 43 -28 16 1 32 8 37 15 4 7 10 8 15 1 4 -5 22 -16 41 -22 30
-11 40 -10 79 7 51 23 122 27 122 7 0 -7 9 -18 21 -25 18 -11 24 -11 40 4 22
20 24 12 6 -24 -8 -15 -20 -40 -28 -57 -8 -16 -20 -30 -26 -30 -13 0 -53 -43
-53 -57 0 -16 -28 -38 -47 -38 -11 0 -57 -19 -103 -41 -46 -23 -95 -41 -107
-41 -15 0 -23 -6 -23 -18 0 -19 -23 -43 -32 -34 -7 6 -114 -42 -122 -55 -3 -5
-22 -12 -41 -15 -20 -4 -63 -16 -97 -27 -33 -10 -75 -19 -93 -19 -19 0 -35 -5
-37 -11 -2 -5 -24 -12 -48 -15 -50 -6 -72 -20 -47 -30 23 -9 21 -31 -3 -37
-28 -7 -25 -34 8 -54 15 -10 30 -22 34 -27 4 -6 10 -7 14 -3 4 4 13 2 21 -4
14 -12 143 -3 143 10 0 4 -5 12 -12 19 -9 9 -9 12 0 12 7 0 12 -4 12 -10 0
-16 40 -11 47 5 3 9 21 22 39 30 19 8 34 19 34 24 0 6 7 11 15 11 8 0 15 -5
15 -11 0 -6 7 -8 16 -5 10 4 25 -1 34 -9 16 -15 24 -12 94 36 96 65 302 262
354 337 86 127 190 329 243 475 38 104 44 150 24 171 -16 15 -22 18 -54 20 -8
1 -16 7 -19 15 -4 11 6 12 53 6 32 -4 64 -13 72 -20 39 -40 125 -76 205 -87
79 -11 108 -21 96 -33 -3 -3 -47 2 -98 11 -87 16 -94 16 -105 1 -7 -10 -17
-17 -24 -17 -6 0 -11 -7 -11 -15 0 -7 -6 -18 -13 -22 -8 -4 -17 -25 -20 -46
-3 -22 -12 -46 -19 -54 -7 -9 -20 -39 -29 -67 -15 -47 -15 -52 0 -68 14 -14
18 -14 27 -2 15 19 28 18 50 -7 19 -22 19 -22 -8 -15 -29 7 -40 -10 -14 -20 8
-3 16 -15 19 -26 4 -15 11 -19 26 -15 18 4 21 0 21 -24 0 -15 -11 -48 -25 -73
-14 -25 -25 -47 -25 -49 0 -2 23 -2 50 1 33 3 50 1 50 -7 0 -6 6 -10 13 -9 15
4 14 -202 -2 -211 -6 -4 -10 -15 -10 -26 0 -11 -2 -69 -4 -128 -2 -59 0 -110
5 -113 5 -3 4 -12 -3 -20 -10 -12 -8 -19 10 -35 19 -18 21 -28 16 -67 -14
-110 -27 -189 -36 -222 -5 -19 -14 -64 -19 -100 -5 -36 -16 -105 -26 -155 -9
-49 -16 -101 -15 -114 0 -13 -3 -29 -8 -35 -8 -10 -15 -68 -12 -103 1 -7 12
-13 25 -13 14 0 28 -5 31 -11 4 -6 13 -8 21 -5 11 4 13 -1 7 -22 -6 -24 -5
-26 10 -13 30 24 49 6 44 -43 -8 -74 -16 -81 -93 -81 -63 0 -69 -2 -80 -25
-16 -32 -45 -259 -37 -289 3 -13 1 -26 -5 -30 -6 -3 -11 -29 -11 -56 0 -28 -1
-113 -2 -190 -1 -77 -3 -180 -4 -230 -1 -49 -5 -186 -10 -302 l-8 -213 353 0
c294 0 351 2 341 13 -14 18 -5 26 20 20 12 -3 18 -11 15 -19 -5 -12 191 -14
1245 -14 l1251 0 -7 28 c-19 70 -46 206 -60 292 -23 144 -36 213 -46 238 -5
13 -9 36 -9 52 0 16 -4 32 -10 35 -5 3 -10 18 -10 32 0 15 -6 49 -14 77 -8 28
-22 80 -32 116 -24 92 -55 202 -64 225 -15 39 -43 140 -50 180 -4 22 -20 81
-35 130 -63 212 -115 391 -125 435 -8 36 -32 125 -52 195 -7 22 -20 55 -30 73
-10 18 -18 44 -18 58 0 19 -20 47 -70 99 l-71 72 53 26 c59 28 158 50 192 41
33 -8 73 11 80 40 4 17 -10 74 -45 176 -75 224 -78 301 -12 365 37 36 96 58
191 70 74 10 113 55 125 142 6 52 56 126 108 158 25 16 48 43 65 77 23 45 26
65 28 157 2 123 12 146 80 179 52 27 73 49 59 63 -5 5 -39 20 -75 33 -110 40
-126 55 -167 157 -23 59 -58 92 -104 101 -22 4 -32 0 -43 -17 -13 -21 -13 -30
0 -83 9 -33 16 -72 16 -87 0 -32 -34 -91 -60 -105 -28 -15 -113 -12 -153 5
-47 20 -69 49 -102 142 -15 43 -34 86 -42 95 -8 9 -39 24 -69 34 -68 21 -137
64 -160 99 -11 17 -19 56 -23 118 -10 152 -49 184 -126 103z m-2635 -885 c0
-5 -5 -11 -12 -13 -7 -3 -9 -11 -4 -24 8 -18 9 -18 19 4 6 13 18 21 26 20 22
-4 26 -42 6 -58 -19 -16 -19 -30 0 -30 8 0 15 -4 15 -10 0 -5 -4 -10 -10 -10
-5 0 -10 -7 -10 -15 0 -17 -46 -20 -70 -5 -12 8 -11 10 8 10 20 0 21 3 12 20
-12 22 -40 26 -57 9 -13 -13 -33 -4 -33 14 0 7 14 21 30 31 17 9 38 28 46 42
16 24 34 32 34 15z m-303 -153 c-3 -8 -6 -5 -6 6 -1 11 2 17 5 13 3 -3 4 -12
1 -19z m292 -44 c10 -8 -14 -24 -38 -24 -32 0 -42 7 -34 26 3 9 15 11 36 7 18
-3 34 -7 36 -9z m-19 -119 c0 -8 -7 -15 -15 -15 -8 0 -15 -5 -15 -12 0 -6 -3
-9 -6 -6 -8 8 14 48 26 48 6 0 10 -7 10 -15z m-259 -127 c-33 -26 -43 -22 -18
6 12 13 26 22 31 19 5 -4 -1 -14 -13 -25z m757 -200 c-6 -18 -28 -21 -28 -4 0
9 7 16 16 16 9 0 14 -5 12 -12z m-784 -244 c20 -7 21 -20 3 -27 -19 -7 -41 8
-33 22 8 13 9 13 30 5z m-40 -43 c8 -12 -42 -63 -57 -58 -24 8 -19 36 7 43 14
3 26 10 26 15 0 12 17 12 24 0z m936 -1 c0 -5 -5 -10 -11 -10 -5 0 -7 5 -4 10
3 6 8 10 11 10 2 0 4 -4 4 -10z m-13 -77 c-3 -10 -5 -2 -5 17 0 19 2 27 5 18
2 -10 2 -26 0 -35z m-982 -23 c3 -5 1 -10 -4 -10 -6 0 -11 5 -11 10 0 6 2 10
4 10 3 0 8 -4 11 -10z m990 -59 c3 -5 1 -12 -5 -16 -5 -3 -10 1 -10 9 0 18 6
21 15 7z m748 -393 c-2 -5 -3 -19 -3 -33 0 -18 -5 -25 -19 -25 -22 0 -29 15
-23 48 3 17 10 22 26 20 11 -2 20 -6 19 -10z m-15 -95 c2 -8 -6 -13 -22 -13
-17 0 -26 5 -26 16 0 19 41 16 48 -3z m-18 -48 c17 -20 8 -27 -23 -20 -17 5
-24 12 -20 21 7 18 27 18 43 -1z m-1 -51 c3 -2 0 -9 -6 -15 -16 -16 -47 -7
-51 15 -3 16 0 18 24 12 16 -4 31 -10 33 -12z m-35 -40 c26 -10 18 -32 -11
-37 -27 -4 -27 -4 -5 -12 30 -10 23 -29 -13 -33 -26 -3 -28 -2 -21 28 3 18 6
39 6 46 0 15 18 18 44 8z m-29 -104 c31 -12 24 -30 -10 -30 -26 0 -40 14 -30
30 8 12 8 12 40 0z m5 -66 c0 -8 -10 -14 -25 -14 -31 0 -33 -17 -3 -22 12 -2
23 -8 25 -15 5 -13 -32 -27 -47 -18 -10 6 -14 77 -5 87 10 10 55 -5 55 -18z
m-19 -94 c30 -16 23 -30 -16 -30 -28 0 -35 4 -35 20 0 22 20 26 51 10z m9 -71
c0 -15 -5 -19 -15 -15 -8 3 -15 2 -15 -3 0 -5 9 -11 20 -14 11 -3 20 -10 20
-16 0 -12 -44 -26 -58 -17 -7 4 -9 69 -3 84 1 1 12 2 26 2 19 0 25 -5 25 -21z
m-2 -89 c6 0 12 -7 12 -15 0 -10 -11 -15 -35 -15 -29 0 -35 4 -35 21 0 17 4
20 23 15 12 -3 28 -6 35 -6z m10 -67 c2 -8 -5 -13 -17 -13 -28 0 -36 -18 -9
-22 31 -4 34 -26 3 -34 -14 -3 -28 -4 -31 -1 -8 7 -12 70 -7 80 7 12 56 4 61
-10z m-12 -93 c8 0 14 -7 14 -15 0 -9 -9 -15 -25 -15 -14 0 -25 -4 -25 -10 0
-5 11 -10 25 -10 16 0 25 -6 25 -15 0 -8 -6 -15 -14 -15 -8 0 -21 -3 -30 -6
-13 -5 -16 3 -16 46 0 43 3 51 16 46 9 -3 22 -6 30 -6z m17 -120 c10 -9 -40
-23 -53 -15 -6 4 -10 13 -10 21 0 11 7 13 28 8 15 -4 31 -10 35 -14z m-3 -55
c1 -5 -13 -13 -29 -16 -25 -5 -31 -3 -31 11 0 9 3 19 6 22 8 9 54 -6 54 -17z
m-3 -52 c2 -6 -6 -13 -19 -15 -28 -4 -27 -22 2 -26 29 -5 19 -27 -11 -27 -21
0 -24 5 -27 43 -3 42 -2 43 24 40 15 -2 29 -8 31 -15z m-8 -107 c9 -11 6 -15
-19 -18 -24 -4 -30 -1 -30 14 0 22 32 24 49 4z m-4 -56 c0 -18 -33 -26 -47
-12 -6 6 -7 15 -3 22 10 16 50 8 50 -10z m-14 -40 c5 0 9 -7 9 -15 0 -8 -4
-15 -9 -15 -21 0 -41 13 -41 27 0 10 6 13 16 9 9 -3 20 -6 25 -6z m7 -68 c2
-8 -8 -12 -27 -12 -24 0 -31 4 -31 19 0 16 5 18 27 12 15 -4 28 -12 31 -19z
m-24 -38 c9 -3 16 -12 16 -20 0 -18 -46 -18 -53 0 -9 23 7 32 37 20z m6 -70
c0 -8 -10 -14 -24 -14 -26 0 -41 14 -32 29 8 13 56 0 56 -15z m-29 -34 c26
-14 24 -30 -4 -30 -29 0 -37 7 -30 26 6 17 9 17 34 4z m7 -68 c3 -10 -4 -13
-24 -10 -15 2 -29 9 -32 16 -3 10 4 13 24 10 15 -2 29 -9 32 -16z m-25 -36
c25 -19 21 -26 -13 -26 -28 0 -40 17 -23 33 9 10 15 8 36 -7z m-22 -46 c26
-14 24 -32 -3 -28 -13 2 -24 11 -26 21 -4 20 2 21 29 7z m-7 -56 c29 -11 18
-31 -14 -26 -17 2 -30 10 -30 18 0 15 18 18 44 8z m-23 -44 c29 -16 25 -44 -6
-36 -15 4 -25 2 -25 -5 0 -6 9 -13 20 -16 28 -7 19 -29 -10 -25 -32 3 -33 4
-18 51 14 46 13 45 39 31z m-8 -125 c1 -6 -10 -11 -25 -13 -26 -3 -38 14 -22
31 8 8 45 -7 47 -18z m-18 -45 c3 -5 4 -14 1 -19 -9 -13 -46 -1 -46 15 0 16
36 19 45 4z m-35 -40 c0 -5 7 -10 15 -10 8 0 15 -4 15 -10 0 -5 -11 -10 -25
-10 -18 0 -25 5 -25 20 0 11 5 20 10 20 6 0 10 -4 10 -10z m9 -64 c9 -10 9
-16 1 -21 -16 -10 -40 2 -40 20 0 19 24 20 39 1z"/>
<path d="M5166 4335 c-3 -9 -6 -39 -6 -66 0 -44 2 -49 23 -49 13 0 28 5 35 12
15 15 16 78 2 78 -6 0 -10 8 -8 18 4 23 -37 29 -46 7z"/>
<path d="M4410 4270 c-9 -6 -10 -10 -3 -10 6 0 15 5 18 10 8 12 4 12 -15 0z"/>
<path d="M3932 4229 c-10 -15 -10 -19 2 -19 25 0 27 -31 4 -51 -13 -10 -26
-18 -30 -19 -5 0 -8 -12 -8 -28 0 -45 95 -85 247 -102 85 -9 95 -9 129 10 20
12 43 28 51 36 8 7 23 14 34 14 22 0 74 73 64 89 -3 6 -14 11 -24 11 -10 0
-31 16 -46 36 -22 28 -32 34 -51 30 -12 -3 -34 -1 -48 6 -20 9 -32 8 -53 -2
-31 -15 -75 -14 -84 2 -4 6 -8 6 -11 -2 -2 -8 -20 -12 -48 -10 -25 1 -56 2
-70 2 -14 0 -30 4 -35 8 -7 6 -16 1 -23 -11z"/>
<path d="M4368 4243 c7 -3 16 -2 19 1 4 3 -2 6 -13 5 -11 0 -14 -3 -6 -6z"/>
<path d="M5040 4065 c0 -8 7 -15 16 -15 14 0 14 3 4 15 -7 8 -14 15 -16 15 -2
0 -4 -7 -4 -15z"/>
<path d="M3206 3312 c-4 -7 -2 -12 4 -12 6 0 10 -7 8 -16 -2 -10 3 -19 10 -21
16 -6 15 18 -1 42 -10 12 -16 14 -21 7z"/>
<path d="M3535 3240 c-3 -5 -14 -10 -23 -10 -25 0 -195 -68 -207 -83 -6 -6
-26 -21 -45 -31 -19 -11 -44 -28 -54 -38 -11 -10 -24 -18 -29 -18 -5 0 -24
-12 -42 -27 -19 -16 -55 -44 -81 -63 -27 -19 -93 -78 -147 -130 -54 -52 -108
-100 -120 -107 -12 -7 -46 -12 -75 -13 -132 -1 -305 -64 -395 -144 -31 -27
-147 -179 -147 -192 0 -3 -9 -26 -21 -52 -28 -64 -42 -96 -77 -177 -17 -38
-40 -88 -52 -110 -11 -21 -20 -44 -20 -50 0 -6 -12 -22 -26 -36 -56 -51 -116
-168 -117 -229 0 -8 -11 -23 -24 -33 -13 -10 -21 -23 -17 -28 3 -5 -2 -12 -10
-15 -9 -3 -14 -10 -11 -14 3 -5 -1 -14 -8 -22 -23 -23 -37 -56 -31 -72 4 -10
1 -16 -7 -16 -15 -1 -66 -101 -75 -150 -4 -16 -10 -30 -15 -30 -5 0 -9 -9 -9
-19 0 -11 -5 -23 -10 -26 -5 -3 -10 -26 -10 -51 0 -24 -4 -44 -9 -44 -4 0 -14
-28 -21 -62 -14 -69 -35 -112 -51 -102 -6 3 -8 12 -5 20 3 8 2 14 -2 14 -9 0
-32 -49 -56 -116 -22 -63 -42 -272 -28 -286 7 -7 12 -17 12 -22 0 -6 -5 -3
-11 7 -13 21 -29 13 -29 -15 0 -14 5 -18 15 -14 8 3 15 1 15 -4 0 -6 -6 -10
-14 -10 -25 0 -32 -74 -32 -345 l1 -270 836 -3 837 -2 5 27 c3 15 1 35 -4 45
-6 11 -5 18 4 22 8 3 7 8 -6 16 -15 9 -16 14 -6 26 9 11 9 18 1 26 -9 9 -12 9
-12 -2 0 -7 -2 -11 -5 -8 -3 3 -1 17 5 32 8 23 6 33 -9 55 -11 15 -21 45 -24
67 -2 21 -11 53 -20 70 -9 17 -14 33 -12 36 3 2 0 20 -5 39 -11 38 -19 113
-24 232 -2 42 -9 83 -15 91 -6 7 -8 15 -5 18 3 4 5 31 5 62 0 31 5 58 10 61 5
4 9 15 9 25 0 13 5 17 15 14 17 -7 21 11 5 21 -8 5 -7 11 1 21 9 11 9 21 1 39
-13 28 -6 55 13 55 22 0 23 24 2 42 -20 18 -18 20 13 22 9 1 16 13 18 29 2 15
7 27 11 27 5 0 11 9 14 20 3 11 2 20 -1 20 -4 0 -8 14 -9 30 -1 18 2 28 7 25
6 -4 10 -2 10 4 0 5 -6 12 -12 15 -10 3 -9 8 4 18 11 9 14 23 11 41 -3 15 0
34 8 43 10 12 10 17 1 23 -9 6 -10 15 -1 39 9 26 8 37 -4 56 -9 13 -13 32 -11
43 3 11 0 38 -6 59 -24 79 -28 104 -19 110 5 3 9 20 8 37 -1 18 6 52 14 77 9
25 17 52 17 61 0 24 75 263 105 334 7 17 20 57 30 90 9 33 20 69 25 80 12 29
31 105 37 145 6 45 23 80 40 80 7 0 13 11 13 24 0 13 7 29 15 36 8 7 15 18 15
25 0 8 5 15 10 17 6 2 27 28 48 58 21 30 50 61 65 67 15 7 39 19 55 26 16 7
38 33 53 62 l26 50 -15 113 c-16 112 -16 112 -43 112 -15 0 -31 -4 -34 -10z
m-780 -546 c13 -5 9 -11 -20 -31 -19 -13 -35 -27 -35 -31 0 -14 -99 -117 -105
-110 -4 3 2 11 13 17 10 5 42 44 71 85 29 42 54 76 56 76 2 0 11 -3 20 -6z
m-835 -1378 c-14 -14 -24 0 -16 21 6 15 8 15 16 3 6 -9 5 -19 0 -24z m0 -86
c0 -5 -6 -10 -14 -10 -8 0 -18 5 -21 10 -3 6 3 10 14 10 12 0 21 -4 21 -10z
m3 -55 c-6 -17 -25 -15 -31 3 -2 7 5 12 17 12 14 0 19 -5 14 -15z m17 -44 c0
-5 -7 -11 -15 -15 -9 -3 -15 0 -15 9 0 8 7 15 15 15 8 0 15 -4 15 -9z m15 -52
c-8 -12 -35 -12 -35 0 0 11 22 20 33 14 4 -2 5 -9 2 -14z m22 -45 c2 -7 -6
-11 -22 -10 -25 1 -31 7 -18 20 10 10 36 3 40 -10z m-407 -11 c0 -5 -7 -17
-15 -27 -15 -20 -20 -10 -9 18 6 16 24 22 24 9z m420 -39 c0 -9 -5 -14 -12
-12 -18 6 -21 28 -4 28 9 0 16 -7 16 -16z m20 -54 c-18 -11 -24 -6 -16 16 5
14 9 15 19 5 9 -9 9 -14 -3 -21z m-460 0 c0 -11 -4 -20 -10 -20 -5 0 -10 9
-10 20 0 11 5 20 10 20 6 0 10 -9 10 -20z m492 -35 c0 -5 -5 -11 -11 -13 -6
-2 -11 4 -11 13 0 9 5 15 11 13 6 -2 11 -8 11 -13z m28 -39 c0 -3 -4 -8 -10
-11 -5 -3 -10 -1 -10 4 0 6 5 11 10 11 6 0 10 -2 10 -4z m-590 -266 c0 -5 -8
-10 -17 -10 -15 0 -16 2 -3 10 19 12 20 12 20 0z"/>
<path d="M4286 3076 c4 -11 -8 -16 -50 -21 -31 -4 -59 -11 -62 -16 -3 -5 -10
-7 -15 -4 -20 13 -7 -10 28 -49 64 -71 130 -105 148 -76 3 6 17 7 31 4 27 -7
41 15 28 44 -4 9 -8 42 -8 72 l-1 55 -52 3 c-42 2 -51 0 -47 -12z"/>
<path d="M5387 3075 c-8 -19 13 -31 23 -14 9 14 4 29 -10 29 -4 0 -10 -7 -13
-15z"/>
<path d="M8764 3025 c5 -48 3 -60 -19 -95 -14 -22 -25 -44 -25 -49 0 -6 -8
-16 -18 -23 -11 -7 -24 -24 -31 -37 -11 -19 -10 -26 2 -39 14 -14 18 -11 38
22 29 50 54 62 85 41 16 -10 24 -25 24 -44 0 -16 7 -34 15 -41 13 -11 15 6 15
148 0 175 1 172 -62 172 l-31 0 7 -55z"/>
<path d="M5422 3030 c-15 -24 -16 -50 -2 -50 6 0 10 9 10 20 0 21 15 27 25 10
3 -5 12 -10 18 -10 7 0 4 5 -5 11 -10 5 -18 17 -18 24 0 21 -13 18 -28 -5z"/>
<path d="M4416 2961 c-7 -11 22 -23 35 -15 5 3 9 9 9 15 0 12 -37 12 -44 0z"/>
<path d="M4930 2900 c0 -5 5 -10 11 -10 5 0 7 5 4 10 -3 6 -8 10 -11 10 -2 0
-4 -4 -4 -10z"/>
<path d="M4625 2890 c-3 -5 -3 -15 1 -21 6 -11 23 6 24 24 0 10 -18 9 -25 -3z"/>
<path d="M4524 2866 c-23 -6 -60 -28 -82 -48 -23 -21 -54 -40 -69 -43 -16 -3
-42 -10 -59 -15 -17 -6 -49 -10 -71 -10 -57 0 -74 -8 -63 -28 5 -10 11 -25 14
-35 3 -9 18 -22 33 -27 16 -6 37 -15 48 -20 11 -5 38 -14 59 -21 33 -10 40 -9
48 5 5 9 20 16 34 16 13 0 27 6 30 14 3 8 23 17 44 21 59 10 77 36 97 140 3
17 11 33 17 38 8 5 6 10 -4 17 -17 11 -21 11 -76 -4z"/>
<path d="M3606 2780 c19 -132 60 -222 133 -295 25 -25 48 -45 53 -45 10 0 11
17 1 22 -33 14 -151 215 -154 260 0 7 -9 31 -19 53 l-19 40 5 -35z"/>
<path d="M4130 2730 c0 -5 7 -10 15 -10 8 0 15 5 15 10 0 6 -7 10 -15 10 -8 0
-15 -4 -15 -10z"/>
<path d="M8842 2655 c0 -16 2 -22 5 -12 2 9 2 23 0 30 -3 6 -5 -1 -5 -18z"/>
<path d="M3310 2614 c0 -8 5 -12 10 -9 6 4 8 11 5 16 -9 14 -15 11 -15 -7z"/>
<path d="M8805 2560 c-3 -5 -15 -10 -25 -10 -32 0 -75 -53 -83 -103 -4 -27 0
-44 16 -70 12 -18 31 -50 42 -71 17 -34 22 -37 48 -32 16 3 33 6 38 6 5 0 9
65 9 145 0 137 -1 145 -19 145 -11 0 -23 -4 -26 -10z"/>
<path d="M4245 2270 c-39 -7 -38 -7 15 -8 30 0 64 3 75 8 16 7 13 8 -15 8 -19
-1 -53 -4 -75 -8z"/>
<path d="M8515 2152 c-30 -6 -55 -32 -55 -58 0 -29 36 -54 89 -61 35 -5 44 -2
71 25 36 36 39 66 8 84 -24 13 -78 18 -113 10z"/>
<path d="M8830 1925 c-14 -17 -10 -47 8 -53 8 -2 12 8 12 32 0 40 -2 42 -20
21z"/>
<path d="M8840 1595 c-4 -42 -10 -53 -36 -70 -21 -13 -36 -34 -44 -60 -11 -36
-10 -41 10 -57 28 -23 32 -23 59 6 20 21 21 31 19 127 -2 73 -5 89 -8 54z"/>
<path d="M5588 1353 c7 -3 16 -2 19 1 4 3 -2 6 -13 5 -11 0 -14 -3 -6 -6z"/>
<path d="M1499 1142 c-34 -36 -41 -49 -29 -57 10 -6 54 35 71 68 15 27 -12 20
-42 -11z"/>
<path d="M8836 1093 c-4 -4 -33 -8 -64 -9 -69 -2 -178 -21 -212 -37 -29 -14
-63 -80 -55 -107 13 -41 159 -95 228 -83 23 3 47 -2 75 -16 l42 -21 0 140 c0
77 -1 140 -3 140 -2 0 -7 -3 -11 -7z"/>
<path d="M1311 1034 c-30 -8 -84 -34 -120 -57 -36 -24 -91 -53 -121 -66 -203
-84 -358 -169 -610 -333 -48 -31 -111 -69 -141 -86 -29 -16 -81 -46 -113 -67
-33 -21 -91 -54 -130 -75 l-71 -36 -3 -132 c-3 -152 2 -158 62 -86 25 30 36
52 33 65 -3 11 2 37 11 59 24 56 79 78 193 79 48 0 94 3 103 7 23 9 20 31 -6
40 -21 6 -19 9 20 25 34 15 42 23 42 44 0 22 9 30 53 50 28 12 75 45 102 72
58 55 188 117 245 115 78 -2 220 76 220 120 0 26 41 100 70 125 14 12 34 23
46 23 12 0 34 4 50 9 16 5 41 12 55 15 34 7 102 108 72 105 -5 0 -32 -7 -62
-15z"/>
<path d="M8830 750 c-8 -5 -25 -10 -37 -10 -13 0 -41 -8 -64 -17 -37 -16 -46
-27 -81 -103 -22 -47 -42 -100 -45 -118 -9 -55 42 -192 67 -177 4 2 5 28 2 58
-5 58 11 87 48 87 10 0 22 5 25 10 3 6 28 10 56 10 l49 0 0 135 c0 74 -1 135
-2 135 -2 0 -10 -5 -18 -10z"/>
<path d="M5016 657 c3 -10 9 -15 12 -12 3 3 0 11 -7 18 -10 9 -11 8 -5 -6z"/>
<path d="M5020 590 c0 -65 21 -275 28 -282 4 -4 15 -1 25 7 17 12 17 15 4 37
-20 29 -27 73 -31 171 -1 43 -8 83 -14 89 -9 9 -12 4 -12 -22z"/>
<path d="M5197 545 c3 -21 2 -35 -5 -35 -5 0 -20 -16 -31 -36 -21 -34 -21 -35
-2 -29 19 6 20 2 17 -50 -2 -36 1 -55 8 -54 6 1 26 -2 44 -6 53 -12 38 -39
-25 -45 -70 -7 -74 -16 -13 -24 45 -6 49 -8 36 -22 -20 -19 -11 -41 17 -40 13
1 22 -5 22 -14 0 -17 -91 -38 -182 -41 -84 -3 -106 -19 -25 -19 43 0 62 -4 62
-12 0 -7 3 -24 7 -38 6 -22 5 -24 -10 -11 -15 11 -18 10 -27 -14 -15 -39 -12
-48 10 -42 11 3 23 1 26 -4 3 -5 37 -9 76 -9 39 0 68 3 65 6 -4 4 3 20 15 37
14 20 18 32 11 34 -18 6 18 43 42 44 11 0 14 3 8 6 -15 6 -17 43 -3 43 6 0 10
5 10 10 0 6 -7 10 -15 10 -8 0 -15 5 -15 10 0 6 5 10 10 10 6 0 10 7 10 15 0
17 -40 97 -52 106 -5 3 -6 13 -2 22 3 9 -1 30 -10 47 -8 17 -12 38 -9 46 3 9
-1 14 -12 14 -13 0 -16 6 -11 23 4 16 -1 31 -14 45 -11 12 -20 26 -20 31 0 5
-4 12 -9 16 -6 3 -7 -9 -4 -30z m-17 -459 c0 -3 -4 -8 -10 -11 -5 -3 -10 -1
-10 4 0 6 5 11 10 11 6 0 10 -2 10 -4z"/>
<path d="M3712 509 c2 -6 8 -10 13 -10 5 0 11 4 13 10 2 6 -4 11 -13 11 -9 0
-15 -5 -13 -11z"/>
<path d="M3981 465 c1 -48 1 -49 10 -17 6 21 6 39 0 50 -8 13 -10 5 -10 -33z"/>
<path d="M4401 473 c-17 -16 -20 -23 -9 -23 18 0 53 36 41 42 -4 2 -19 -6 -32
-19z"/>
<path d="M3720 459 c0 -5 5 -7 10 -4 6 3 10 8 10 11 0 2 -4 4 -10 4 -5 0 -10
-5 -10 -11z"/>
<path d="M4550 460 c0 -5 13 -10 29 -10 17 0 33 5 36 10 4 6 -8 10 -29 10 -20
0 -36 -4 -36 -10z"/>
<path d="M3716 424 c-7 -23 1 -54 15 -54 11 0 11 27 0 55 -8 20 -8 20 -15 -1z"/>
<path d="M4229 424 c-12 -14 -11 -16 5 -13 11 2 21 10 24 17 5 17 -13 15 -29
-4z"/>
<path d="M3275 393 c9 -35 13 -55 14 -67 1 -5 4 -7 7 -4 9 10 -7 98 -18 98 -6
0 -7 -11 -3 -27z"/>
<path d="M3718 355 c-3 -4 -1 -20 6 -37 8 -23 8 -32 0 -35 -15 -5 -6 -104 12
-122 11 -12 16 -12 29 -1 13 11 13 14 1 24 -16 13 -28 100 -15 113 5 5 0 21
-10 36 -9 15 -20 25 -23 22z"/>
<path d="M3985 237 c-3 -12 -2 -34 4 -47 9 -22 10 -19 10 23 1 51 -5 61 -14
24z"/>
<path d="M4440 201 c0 -75 -8 -97 -56 -143 -44 -44 -34 -50 15 -10 18 16 39
46 47 68 16 46 18 130 4 139 -6 4 -10 -16 -10 -54z"/>
<path d="M8747 173 c-14 -13 -6 -89 13 -130 17 -39 22 -43 55 -43 l35 0 0 81
c0 79 -1 81 -22 76 -13 -3 -32 1 -42 9 -22 16 -30 17 -39 7z"/>
<path d="M3980 136 c0 -22 3 -27 11 -19 8 8 8 16 0 30 -9 16 -10 14 -11 -11z"/>
<path d="M3323 60 c0 -36 2 -50 4 -32 2 17 2 47 0 65 -2 17 -4 3 -4 -33z"/>
<path d="M3950 65 c-8 -9 -8 -15 -2 -15 12 0 26 19 19 26 -2 2 -10 -2 -17 -11z"/>
</g>
</svg>
